<?xml version="1.0" encoding="UTF-8"?><svg xmlns="http://www.w3.org/2000/svg" xmlns:xlink="http://www.w3.org/1999/xlink" height="4.4" preserveAspectRatio="xMidYMid meet" version="1.0" viewBox="0.0 -0.1 143.7 4.4" width="143.7" zoomAndPan="magnify"><g id="change1_1"><path d="M1.3,4.3H0.5C0.2,4.3,0,4.1,0,3.9c0,0,0,0,0,0c0-0.3,0.2-0.5,0.5-0.5c2.4,0,4.8,0,7.2,0c1.2,0,2.5,0,3.7-0.1 s2.5-0.1,3.7-0.2l0,0c1.5-0.1,3.1-0.2,4.6-0.3s3-0.2,4.5-0.3l0,0l4.4-0.3h0.2h0.4h0.1L32.1,2l0,0c3-0.2,6-0.5,9.1-0.6s6-0.2,8.9-0.2 h54.7h9.2c3,0,6,0,9-0.1c3.4-0.1,6.8-0.2,10.3-0.5l0,0c1.8-0.1,3.5-0.3,5.3-0.4l2.4-0.2c0.7,0,1.5-0.1,2.2-0.1 c0.3,0,0.5,0.2,0.5,0.5c0,0.3-0.2,0.5-0.5,0.5c-0.7,0-1.5,0.1-2.2,0.1l0,0l-4.5,0.4c-1.5,0.1-3,0.2-4.5,0.3s-3,0.1-4.6,0.2 c-1.6,0.1-3,0.1-4.6,0.2c-3.1,0.1-6.2,0.1-9.3,0.1h-9H49.8c-3.8,0-7.6,0.1-11.4,0.3h0.1l-8.2,0.6h0.1l-0.7,0h-0.3h-0.5h-0.2 c-1.8,0.1-3.6,0.3-5.5,0.4s-3.5,0.2-5.2,0.3l0,0C16.5,3.9,15,4,13.5,4.1s-2.8,0.1-4.1,0.2H5.2L1.3,4.3z" fill="#EFE6DD"/></g></svg>